<?xml version="1.0" encoding="utf-8"?>
<!-- Generator: Adobe Illustrator 19.1.0, SVG Export Plug-In . SVG Version: 6.00 Build 0)  -->
<svg version="1.1" id="logo" xmlns="http://www.w3.org/2000/svg" xmlns:xlink="http://www.w3.org/1999/xlink" x="0px" y="0px"
	 viewBox="0 0 792.9 105.5" style="enable-background:new 0 0 792.9 105.5;" xml:space="preserve">
<style type="text/css">
	.st0{fill:#FFFFFF;}
	.st1{fill:#ED1C24;}
	.st2{fill:none;stroke:#ED1C24;stroke-width:2;}
</style>
<g>
	<g>
		<path d="M160.1,46.1h-3.1V23h3.1V46.1z"/>
		<path d="M179.4,46.1h-2.8V35.7c0-2.9-0.8-4.4-3.6-4.4c-1.6,0-4.5,1-4.5,5.6v9.2h-2.8V29.2h2.7v2.4h0.1c0.6-0.9,2.2-2.9,5.1-2.9
			c2.6,0,5.9,1.1,5.9,5.9V46.1z"/>
		<path d="M187.8,31.6v11c0,1.3,1.1,1.3,1.7,1.3h1v2.2c-1,0.1-1.8,0.2-2.1,0.2c-2.8,0-3.4-1.6-3.4-3.6V31.6h-2.3v-2.4h2.3v-4.7h2.8
			v4.7h2.7v2.4H187.8z"/>
		<path d="M196.1,36.3c0-2.6,2.1-5,4.7-5c3.5,0,4.5,2.4,4.7,5H196.1z M205.4,40.8c-0.1,1.3-1.7,3.3-4.4,3.3c-3.3,0-4.9-2-4.9-5.5
			h12.3c0-6-2.4-9.8-7.3-9.8c-5.6,0-8.1,4.2-8.1,9.4c0,4.9,2.8,8.5,7.5,8.5c2.7,0,3.8-0.6,4.6-1.2c2.1-1.4,2.9-3.8,3-4.6H205.4z"/>
		<path d="M215.7,46.1h-2.8V29.2h2.7v2.8h0.1c1.1-2,2.6-3.3,4.7-3.3c0.4,0,0.5,0,0.7,0.1v2.9H220c-2.6,0-4.3,2.1-4.3,4.5V46.1z"/>
		<path d="M238.4,46.1h-2.8V35.7c0-2.9-0.8-4.4-3.6-4.4c-1.6,0-4.5,1-4.5,5.6v9.2h-2.8V29.2h2.7v2.4h0.1c0.6-0.9,2.2-2.9,5.1-2.9
			c2.6,0,5.9,1.1,5.9,5.9V46.1z"/>
		<path d="M253.5,40.3c0,2.3-2.6,4-5.2,4c-2.1,0-3.1-1.1-3.1-2.9c0-2.1,2.2-2.5,3.6-2.7c3.5-0.5,4.2-0.7,4.7-1.1V40.3z M245.8,34.4
			c0.2-1.3,0.6-3.3,3.9-3.3c2.7,0,4,1,4,2.7c0,1.7-0.8,1.9-1.5,2l-4.7,0.6c-4.7,0.6-5.1,3.9-5.1,5.3c0,2.9,2.2,4.9,5.3,4.9
			c3.3,0,5-1.5,6.1-2.7c0.1,1.3,0.5,2.6,3,2.6c0.6,0,1.1-0.2,1.5-0.3v-2.1c-0.3,0.1-0.7,0.1-0.9,0.1c-0.6,0-0.9-0.3-0.9-1v-9.7
			c0-4.3-4.9-4.7-6.3-4.7c-4.2,0-6.8,1.6-7,5.6H245.8z"/>
		<path d="M265.3,31.6v11c0,1.3,1.1,1.3,1.7,1.3h1v2.2c-1,0.1-1.8,0.2-2.1,0.2c-2.8,0-3.4-1.6-3.4-3.6V31.6h-2.3v-2.4h2.3v-4.7h2.8
			v4.7h2.7v2.4H265.3z"/>
		<path d="M274.3,46.1h-2.8V29.2h2.8V46.1z M271.5,26.2V23h2.8v3.2H271.5z"/>
		<path d="M281.2,37.7c0-2.3,0.8-6.5,4.9-6.5c4.1,0,4.9,4.2,4.9,6.5c0,2.3-0.8,6.5-4.9,6.5C282.1,44.1,281.2,39.9,281.2,37.7z
			 M278.3,37.7c0,4.4,2.5,8.9,7.8,8.9c5.4,0,7.8-4.5,7.8-8.9s-2.5-8.9-7.8-8.9C280.7,28.8,278.3,33.3,278.3,37.7z"/>
		<path d="M311.6,46.1h-2.8V35.7c0-2.9-0.8-4.4-3.6-4.4c-1.6,0-4.5,1-4.5,5.6v9.2h-2.8V29.2h2.7v2.4h0.1c0.6-0.9,2.2-2.9,5.1-2.9
			c2.6,0,5.9,1.1,5.9,5.9V46.1z"/>
		<path d="M326.7,40.3c0,2.3-2.6,4-5.2,4c-2.1,0-3.1-1.1-3.1-2.9c0-2.1,2.2-2.5,3.6-2.7c3.5-0.5,4.2-0.7,4.7-1.1V40.3z M318.9,34.4
			c0.2-1.3,0.6-3.3,3.9-3.3c2.7,0,4,1,4,2.7c0,1.7-0.8,1.9-1.5,2l-4.7,0.6c-4.7,0.6-5.1,3.9-5.1,5.3c0,2.9,2.2,4.9,5.3,4.9
			c3.3,0,5-1.5,6.1-2.7c0.1,1.3,0.5,2.6,3,2.6c0.6,0,1.1-0.2,1.5-0.3v-2.1c-0.3,0.1-0.7,0.1-0.9,0.1c-0.6,0-0.9-0.3-0.9-1v-9.7
			c0-4.3-4.9-4.7-6.3-4.7c-4.2,0-6.8,1.6-7,5.6H318.9z"/>
		<path d="M337.9,46.1H335V23h2.8V46.1z"/>
		<path d="M356.2,46.1h-3.1V23h16v2.8h-12.9v7.1h11.4v2.8h-11.4V46.1z"/>
		<path d="M374,36.3c0-2.6,2.1-5,4.7-5c3.5,0,4.5,2.4,4.7,5H374z M383.3,40.8c-0.1,1.3-1.7,3.3-4.4,3.3c-3.3,0-4.9-2-4.9-5.5h12.3
			c0-6-2.4-9.8-7.3-9.8c-5.6,0-8.1,4.2-8.1,9.4c0,4.9,2.8,8.5,7.5,8.5c2.7,0,3.8-0.6,4.6-1.2c2.1-1.4,2.9-3.8,3-4.6H383.3z"/>
		<path d="M392.3,37.6c0-2.2,0.2-6.3,4.6-6.3c4.1,0,4.5,4.4,4.5,7.2c0,4.5-2.8,5.7-4.6,5.7C393.8,44.1,392.3,41.3,392.3,37.6z
			 M404.4,23h-2.8v8.7h-0.1c-0.7-1-2-2.9-5-2.9c-4.5,0-7,3.7-7,8.4c0,4,1.7,9.4,7.4,9.4c1.6,0,3.6-0.5,4.8-2.8h0.1v2.3h2.7V23z"/>
		<path d="M411.2,36.3c0-2.6,2.1-5,4.7-5c3.5,0,4.5,2.4,4.7,5H411.2z M420.4,40.8c-0.1,1.3-1.7,3.3-4.4,3.3c-3.3,0-4.9-2-4.9-5.5
			h12.3c0-6-2.4-9.8-7.3-9.8c-5.6,0-8.1,4.2-8.1,9.4c0,4.9,2.8,8.5,7.5,8.5c2.7,0,3.8-0.6,4.6-1.2c2.1-1.4,2.9-3.8,3-4.6H420.4z"/>
		<path d="M430.8,46.1h-2.8V29.2h2.7v2.8h0.1c1.1-2,2.6-3.3,4.7-3.3c0.4,0,0.5,0,0.7,0.1v2.9h-1.1c-2.6,0-4.3,2.1-4.3,4.5V46.1z"/>
		<path d="M448.9,40.3c0,2.3-2.6,4-5.2,4c-2.1,0-3.1-1.1-3.1-2.9c0-2.1,2.2-2.5,3.6-2.7c3.5-0.5,4.2-0.7,4.7-1.1V40.3z M441.1,34.4
			c0.2-1.3,0.6-3.3,3.9-3.3c2.7,0,4,1,4,2.7c0,1.7-0.8,1.9-1.5,2l-4.7,0.6c-4.7,0.6-5.1,3.9-5.1,5.3c0,2.9,2.2,4.9,5.3,4.9
			c3.3,0,5-1.5,6.1-2.7c0.1,1.3,0.5,2.6,3,2.6c0.6,0,1.1-0.2,1.5-0.3v-2.1c-0.3,0.1-0.7,0.1-0.9,0.1c-0.6,0-0.9-0.3-0.9-1v-9.7
			c0-4.3-4.9-4.7-6.3-4.7c-4.2,0-6.8,1.6-7,5.6H441.1z"/>
		<path d="M460.7,31.6v11c0,1.3,1.1,1.3,1.7,1.3h1v2.2c-1,0.1-1.8,0.2-2.1,0.2c-2.8,0-3.4-1.6-3.4-3.6V31.6h-2.3v-2.4h2.3v-4.7h2.8
			v4.7h2.7v2.4H460.7z"/>
		<path d="M469.7,46.1h-2.8V29.2h2.8V46.1z M466.8,26.2V23h2.8v3.2H466.8z"/>
		<path d="M476.6,37.7c0-2.3,0.8-6.5,4.9-6.5c4.1,0,4.9,4.2,4.9,6.5c0,2.3-0.8,6.5-4.9,6.5C477.4,44.1,476.6,39.9,476.6,37.7z
			 M473.6,37.7c0,4.4,2.5,8.9,7.8,8.9c5.4,0,7.8-4.5,7.8-8.9s-2.5-8.9-7.8-8.9C476.1,28.8,473.6,33.3,473.6,37.7z"/>
		<path d="M506.9,46.1h-2.8V35.7c0-2.9-0.8-4.4-3.6-4.4c-1.6,0-4.5,1-4.5,5.6v9.2h-2.8V29.2h2.7v2.4h0.1c0.6-0.9,2.2-2.9,5.1-2.9
			c2.6,0,5.9,1.1,5.9,5.9V46.1z"/>
		<path d="M158.1,75.7c0-2.3,0.8-6.5,4.9-6.5c4.1,0,4.9,4.2,4.9,6.5c0,2.3-0.8,6.5-4.9,6.5C158.9,82.1,158.1,77.9,158.1,75.7z
			 M155.1,75.7c0,4.4,2.5,8.9,7.8,8.9c5.4,0,7.8-4.5,7.8-8.9c0-4.4-2.5-8.9-7.8-8.9C157.6,66.8,155.1,71.3,155.1,75.7z"/>
		<path d="M178.2,69.6v14.5h-2.8V69.6H173v-2.4h2.3v-2.9c0-2.5,1.6-3.7,4.4-3.7c0.4,0,0.8,0,1.3,0.1v2.5c-0.4,0-0.8-0.1-1.2-0.1
			c-1.2,0-1.7,0.6-1.7,2v2.1h2.8v2.4H178.2z"/>
		<path d="M197.8,63.6h7.8c1.5,0,4.2,0.3,4.2,3.9c0,3.4-2.4,4-4.7,4h-7.3V63.6z M197.8,74.2h7.6c3.7,0,4.1,2.2,4.1,4.1
			c0,0.9,0.1,4.4,0.5,5.8h3.8v-0.5c-1-0.5-1.1-1-1.2-2.3l-0.2-4.2c-0.1-3.2-1.5-3.8-2.8-4.4c1.5-0.9,3.2-2.1,3.2-5.5
			c0-4.9-3.8-6.2-7.6-6.2h-10.7v23.2h3.1V74.2z"/>
		<path d="M220.1,74.3c0-2.6,2.1-5,4.7-5c3.5,0,4.5,2.4,4.7,5H220.1z M229.3,78.8c-0.1,1.3-1.7,3.3-4.4,3.3c-3.3,0-4.9-2-4.9-5.5
			h12.3c0-6-2.4-9.8-7.3-9.8c-5.6,0-8.1,4.2-8.1,9.4c0,4.9,2.8,8.5,7.5,8.5c2.7,0,3.8-0.6,4.6-1.2c2.1-1.4,2.9-3.8,3-4.6H229.3z"/>
		<path d="M238.4,75.6c0-2.2,0.2-6.3,4.6-6.3c4.1,0,4.5,4.4,4.5,7.2c0,4.5-2.8,5.7-4.6,5.7C239.8,82.1,238.4,79.3,238.4,75.6z
			 M250.4,61h-2.8v8.7h-0.1c-0.7-1-2-2.9-5-2.9c-4.5,0-7,3.7-7,8.4c0,4,1.7,9.4,7.4,9.4c1.6,0,3.6-0.5,4.8-2.8h0.1v2.3h2.7V61z"/>
		<path d="M281.2,67.9c-0.9-4.1-4.3-4.8-6.5-4.8c-4.2,0-7.6,3.1-7.6,9.2c0,5.5,1.9,9.6,7.7,9.6c2,0,5.5-1,6.6-6.4h3
			c-1.3,8.7-8.4,9.1-10.1,9.1c-5.3,0-10.4-3.4-10.4-12.3c0-7.1,4.1-12.1,10.8-12.1c6,0,9.1,3.7,9.5,7.6H281.2z"/>
		<path d="M291.8,84.1h-2.8V67.2h2.7v2.8h0.1c1.1-2,2.6-3.3,4.7-3.3c0.4,0,0.5,0,0.7,0.1v2.9h-1.1c-2.6,0-4.3,2.1-4.3,4.5V84.1z"/>
		<path d="M301.9,75.7c0-2.3,0.8-6.5,4.9-6.5c4.1,0,4.9,4.2,4.9,6.5c0,2.3-0.8,6.5-4.9,6.5C302.7,82.1,301.9,77.9,301.9,75.7z
			 M299,75.7c0,4.4,2.5,8.9,7.8,8.9c5.4,0,7.8-4.5,7.8-8.9c0-4.4-2.5-8.9-7.8-8.9C301.4,66.8,299,71.3,299,75.7z"/>
		<path d="M328.1,72.1c0-1.1-0.4-2.8-4-2.8c-0.9,0-3.4,0.3-3.4,2.4c0,1.4,0.9,1.7,3.1,2.3l2.8,0.7c3.5,0.9,4.7,2.2,4.7,4.5
			c0,3.5-2.9,5.6-6.7,5.6c-6.7,0-7.2-3.9-7.3-5.9h2.7c0.1,1.3,0.5,3.5,4.5,3.5c2,0,3.9-0.8,3.9-2.7c0-1.4-0.9-1.8-3.4-2.4l-3.3-0.8
			c-2.4-0.6-3.9-1.8-3.9-4.1c0-3.7,3.1-5.4,6.4-5.4c6,0,6.5,4.5,6.5,5.3H328.1z"/>
		<path d="M344.9,72.1c0-1.1-0.4-2.8-4-2.8c-0.9,0-3.4,0.3-3.4,2.4c0,1.4,0.9,1.7,3.1,2.3l2.8,0.7c3.5,0.9,4.7,2.2,4.7,4.5
			c0,3.5-2.9,5.6-6.7,5.6c-6.7,0-7.2-3.9-7.3-5.9h2.7c0.1,1.3,0.5,3.5,4.5,3.5c2,0,3.9-0.8,3.9-2.7c0-1.4-0.9-1.8-3.4-2.4l-3.3-0.8
			c-2.4-0.6-3.9-1.8-3.9-4.1c0-3.7,3.1-5.4,6.4-5.4c6,0,6.5,4.5,6.5,5.3H344.9z"/>
		<path d="M372,78.3c0,2.3-2.6,4-5.2,4c-2.1,0-3.1-1.1-3.1-2.9c0-2.1,2.2-2.5,3.6-2.7c3.5-0.5,4.2-0.7,4.7-1.1V78.3z M364.2,72.4
			c0.2-1.3,0.6-3.3,3.9-3.3c2.7,0,4,1,4,2.7c0,1.7-0.8,1.9-1.5,2l-4.7,0.6c-4.7,0.6-5.1,3.9-5.1,5.3c0,2.9,2.2,4.9,5.3,4.9
			c3.3,0,5-1.5,6.1-2.7c0.1,1.3,0.5,2.6,3,2.6c0.6,0,1.1-0.2,1.5-0.3V82c-0.3,0.1-0.7,0.1-0.9,0.1c-0.6,0-0.9-0.3-0.9-1v-9.7
			c0-4.3-4.9-4.7-6.3-4.7c-4.2,0-6.8,1.6-7,5.6H364.2z"/>
		<path d="M394,84.1h-2.8V73.7c0-2.9-0.8-4.4-3.6-4.4c-1.6,0-4.5,1-4.5,5.6v9.2h-2.8V67.2h2.7v2.4h0.1c0.6-0.9,2.2-2.9,5.1-2.9
			c2.6,0,5.9,1.1,5.9,5.9V84.1z"/>
		<path d="M400.8,75.6c0-2.2,0.2-6.3,4.6-6.3c4.1,0,4.5,4.4,4.5,7.2c0,4.5-2.8,5.7-4.6,5.7C402.2,82.1,400.8,79.3,400.8,75.6z
			 M412.8,61H410v8.7h-0.1c-0.7-1-2-2.9-5-2.9c-4.5,0-7,3.7-7,8.4c0,4,1.7,9.4,7.4,9.4c1.6,0,3.6-0.5,4.8-2.8h0.1v2.3h2.7V61z"/>
		<path d="M430.9,63.6h7.8c1.5,0,4.2,0.3,4.2,3.9c0,3.4-2.4,4-4.7,4h-7.3V63.6z M430.9,74.2h7.6c3.7,0,4.1,2.2,4.1,4.1
			c0,0.9,0.1,4.4,0.5,5.8h3.8v-0.5c-1-0.5-1.1-1-1.2-2.3l-0.2-4.2c-0.1-3.2-1.5-3.8-2.8-4.4c1.5-0.9,3.2-2.1,3.2-5.5
			c0-4.9-3.8-6.2-7.6-6.2h-10.7v23.2h3.1V74.2z"/>
		<path d="M453.2,74.3c0-2.6,2.1-5,4.7-5c3.5,0,4.5,2.4,4.7,5H453.2z M462.4,78.8c-0.1,1.3-1.7,3.3-4.4,3.3c-3.3,0-4.9-2-4.9-5.5
			h12.3c0-6-2.4-9.8-7.3-9.8c-5.6,0-8.1,4.2-8.1,9.4c0,4.9,2.8,8.5,7.5,8.5c2.7,0,3.8-0.6,4.6-1.2c2.1-1.4,2.9-3.8,3-4.6H462.4z"/>
		<path d="M471.5,75.6c0-2.2,0.2-6.3,4.6-6.3c4.1,0,4.5,4.4,4.5,7.2c0,4.5-2.8,5.7-4.6,5.7C472.9,82.1,471.5,79.3,471.5,75.6z
			 M483.5,61h-2.8v8.7h-0.1c-0.7-1-2-2.9-5-2.9c-4.5,0-7,3.7-7,8.4c0,4,1.7,9.4,7.4,9.4c1.6,0,3.6-0.5,4.8-2.8h0.1v2.3h2.7V61z"/>
		<path d="M514.3,67.9c-0.9-4.1-4.3-4.8-6.5-4.8c-4.2,0-7.6,3.1-7.6,9.2c0,5.5,1.9,9.6,7.7,9.6c2,0,5.5-1,6.6-6.4h3
			c-1.3,8.7-8.4,9.1-10.1,9.1c-5.3,0-10.4-3.4-10.4-12.3c0-7.1,4.1-12.1,10.8-12.1c6,0,9.1,3.7,9.5,7.6H514.3z"/>
		<path d="M524.9,84.1H522V67.2h2.7v2.8h0.1c1.1-2,2.6-3.3,4.7-3.3c0.4,0,0.5,0,0.7,0.1v2.9h-1.1c-2.6,0-4.3,2.1-4.3,4.5V84.1z"/>
		<path d="M535.3,74.3c0-2.6,2.1-5,4.7-5c3.5,0,4.5,2.4,4.7,5H535.3z M544.5,78.8c-0.1,1.3-1.7,3.3-4.4,3.3c-3.3,0-4.9-2-4.9-5.5
			h12.3c0-6-2.4-9.8-7.3-9.8c-5.6,0-8.1,4.2-8.1,9.4c0,4.9,2.8,8.5,7.5,8.5c2.7,0,3.8-0.6,4.6-1.2c2.1-1.4,2.9-3.8,3-4.6H544.5z"/>
		<path d="M561.2,72.1c0-1.1-0.4-2.8-4-2.8c-0.9,0-3.4,0.3-3.4,2.4c0,1.4,0.9,1.7,3.1,2.3l2.8,0.7c3.5,0.9,4.7,2.2,4.7,4.5
			c0,3.5-2.9,5.6-6.7,5.6c-6.7,0-7.2-3.9-7.3-5.9h2.7c0.1,1.3,0.5,3.5,4.5,3.5c2,0,3.9-0.8,3.9-2.7c0-1.4-0.9-1.8-3.4-2.4l-3.3-0.8
			c-2.4-0.6-3.9-1.8-3.9-4.1c0-3.7,3.1-5.4,6.4-5.4c6,0,6.5,4.5,6.5,5.3H561.2z"/>
		<path d="M578.9,72.9c-0.4-2.3-1.6-3.6-4-3.6c-3.5,0-4.6,3.4-4.6,6.4c0,2.9,0.7,6.5,4.6,6.5c1.9,0,3.5-1.4,4-4h2.7
			c-0.3,2.7-1.9,6.5-6.9,6.5c-4.7,0-7.5-3.6-7.5-8.5c0-5.2,2.5-9.4,8.1-9.4c4.4,0,6.1,3.2,6.3,6.2H578.9z"/>
		<path d="M587.4,74.3c0-2.6,2.1-5,4.7-5c3.5,0,4.5,2.4,4.7,5H587.4z M596.7,78.8c-0.1,1.3-1.7,3.3-4.4,3.3c-3.3,0-4.9-2-4.9-5.5
			h12.3c0-6-2.4-9.8-7.3-9.8c-5.6,0-8.1,4.2-8.1,9.4c0,4.9,2.8,8.5,7.5,8.5c2.7,0,3.8-0.6,4.6-1.2c2.1-1.4,2.9-3.8,3-4.6H596.7z"/>
		<path d="M617.5,84.1h-2.8V73.7c0-2.9-0.8-4.4-3.6-4.4c-1.6,0-4.5,1-4.5,5.6v9.2h-2.8V67.2h2.7v2.4h0.1c0.6-0.9,2.2-2.9,5.1-2.9
			c2.6,0,5.9,1.1,5.9,5.9V84.1z"/>
		<path d="M625.8,69.6v11c0,1.3,1.1,1.3,1.7,1.3h1v2.2c-1,0.1-1.8,0.2-2.1,0.2c-2.8,0-3.4-1.6-3.4-3.6V69.6h-2.3v-2.4h2.3v-4.7h2.8
			v4.7h2.7v2.4H625.8z"/>
		<path d="M655.9,67.7c-0.2-3.6-3.1-4.7-5.7-4.7c-2,0-5.3,0.5-5.3,4.1c0,2,1.4,2.6,2.7,2.9l6.6,1.5c3,0.7,5.3,2.5,5.3,6.2
			c0,5.5-5.1,7-9.1,7c-4.3,0-6-1.3-7-2.2c-2-1.8-2.4-3.7-2.4-5.9h2.9c0,4.2,3.4,5.4,6.4,5.4c2.3,0,6.1-0.6,6.1-3.9
			c0-2.4-1.1-3.2-4.9-4.1l-4.7-1.1c-1.5-0.4-4.9-1.4-4.9-5.5c0-3.6,2.4-7.2,8-7.2c8.1,0,8.9,4.8,9,7.4H655.9z"/>
		<path d="M665.7,75.7c0-2.3,0.8-6.5,4.9-6.5c4.1,0,4.9,4.2,4.9,6.5c0,2.3-0.8,6.5-4.9,6.5C666.5,82.1,665.7,77.9,665.7,75.7z
			 M662.7,75.7c0,4.4,2.5,8.9,7.8,8.9c5.4,0,7.8-4.5,7.8-8.9c0-4.4-2.5-8.9-7.8-8.9C665.2,66.8,662.7,71.3,662.7,75.7z"/>
		<path d="M692.8,72.9c-0.4-2.3-1.6-3.6-4-3.6c-3.5,0-4.6,3.4-4.6,6.4c0,2.9,0.7,6.5,4.6,6.5c1.9,0,3.5-1.4,4-4h2.7
			c-0.3,2.7-1.9,6.5-6.9,6.5c-4.7,0-7.5-3.6-7.5-8.5c0-5.2,2.5-9.4,8.1-9.4c4.4,0,6.1,3.2,6.3,6.2H692.8z"/>
		<path d="M702,84.1h-2.8V67.2h2.8V84.1z M699.1,64.2V61h2.8v3.2H699.1z"/>
		<path d="M709.1,74.3c0-2.6,2.1-5,4.7-5c3.5,0,4.5,2.4,4.7,5H709.1z M718.4,78.8c-0.1,1.3-1.7,3.3-4.4,3.3c-3.3,0-4.9-2-4.9-5.5
			h12.3c0-6-2.4-9.8-7.3-9.8c-5.6,0-8.1,4.2-8.1,9.4c0,4.9,2.8,8.5,7.5,8.5c2.7,0,3.8-0.6,4.6-1.2c2.1-1.4,2.9-3.8,3-4.6H718.4z"/>
		<path d="M728.9,69.6v11c0,1.3,1.1,1.3,1.7,1.3h1v2.2c-1,0.1-1.8,0.2-2.1,0.2c-2.8,0-3.4-1.6-3.4-3.6V69.6h-2.3v-2.4h2.3v-4.7h2.8
			v4.7h2.7v2.4H728.9z"/>
		<path d="M738,84.1h-2.8V67.2h2.8V84.1z M735.1,64.2V61h2.8v3.2H735.1z"/>
		<path d="M745.1,74.3c0-2.6,2.1-5,4.7-5c3.5,0,4.5,2.4,4.7,5H745.1z M754.4,78.8c-0.1,1.3-1.7,3.3-4.4,3.3c-3.3,0-4.9-2-4.9-5.5
			h12.3c0-6-2.4-9.8-7.3-9.8c-5.6,0-8.1,4.2-8.1,9.4c0,4.9,2.8,8.5,7.5,8.5c2.7,0,3.8-0.6,4.6-1.2c2.1-1.4,2.9-3.8,3-4.6H754.4z"/>
		<path d="M771,72.1c0-1.1-0.4-2.8-4-2.8c-0.9,0-3.4,0.3-3.4,2.4c0,1.4,0.9,1.7,3.1,2.3l2.8,0.7c3.5,0.9,4.7,2.2,4.7,4.5
			c0,3.5-2.9,5.6-6.7,5.6c-6.7,0-7.2-3.9-7.3-5.9h2.7c0.1,1.3,0.5,3.5,4.5,3.5c2,0,3.9-0.8,3.9-2.7c0-1.4-0.9-1.8-3.4-2.4l-3.3-0.8
			c-2.4-0.6-3.9-1.8-3.9-4.1c0-3.7,3.1-5.4,6.4-5.4c6,0,6.5,4.5,6.5,5.3H771z"/>
	</g>
	<g>
		<rect x="20.8" y="18.1" class="st0" width="123" height="70.5"/>
		<g>
			<polygon class="st1" points="52,60.5 36,60.5 36,46.8 52,46.8 52,46.8 52,30.8 65.7,30.8 65.7,46.8 65.7,46.8 81.7,46.8 
				81.7,60.5 65.7,60.5 65.7,60.5 65.7,76.5 52,76.5 52,60.5 			"/>
			<g>
				<path class="st1" d="M102.9,53.4c0-10.7,8.6-19.3,19.3-19.3c2.4,0,4.6,0.4,6.7,1.2c-3.9-3.1-8.9-5-14.4-5
					c-12.8,0-23.2,10.4-23.2,23.2c0,12.8,10.4,23.2,23.2,23.2c5.6,0,10.7-2,14.8-5.3c-2.2,0.9-4.6,1.4-7.1,1.4
					C111.5,72.7,102.9,64.1,102.9,53.4z"/>
			</g>
			<rect x="26.1" y="23.4" class="st2" width="112.7" height="60.4"/>
		</g>
	</g>
</g>
</svg>
